<svg width="16" height="16" viewBox="0 0 16 16" fill="none" xmlns="http://www.w3.org/2000/svg">
<path d="M8 0C3.58172 0 0 3.58172 0 8C0 12.4183 3.58172 16 8 16C12.4183 16 16 12.4183 16 8C15.9949 3.58385 12.4161 0.00514317 8 0Z" fill="#1971F5" fill-opacity="0.4"/>
<path d="M12.6178 5.4665L8.0545 11.6592C7.94567 11.8036 7.78339 11.8982 7.60412 11.9217C7.42485 11.9453 7.24363 11.8959 7.10117 11.7845L3.8425 9.17917C3.55495 8.94905 3.50839 8.52939 3.7385 8.24184C3.96862 7.95428 4.38828 7.90772 4.67584 8.13784L7.39317 10.3118L11.5445 4.67784C11.6806 4.47356 11.918 4.36063 12.1624 4.38386C12.4068 4.4071 12.6186 4.56275 12.7138 4.78902C12.809 5.01529 12.7721 5.27556 12.6178 5.4665Z" fill="white"/>
</svg>
