<svg width="32" height="32" viewBox="0 0 32 32" fill="none" xmlns="http://www.w3.org/2000/svg">
<rect width="32" height="32" rx="16" fill="#1971F5" fill-opacity="0.1"/>
<g clip-path="url(#clip0_359_114)">
<path d="M23.0266 12.2803C22.9474 11.9639 22.7862 11.674 22.5591 11.4399C22.332 11.2058 22.0471 11.0358 21.7333 10.947C20.5866 10.667 16 10.667 16 10.667C16 10.667 11.4133 10.667 10.2666 10.9737C9.95281 11.0624 9.66796 11.2325 9.44087 11.4666C9.21378 11.7007 9.0525 11.9906 8.97331 12.307C8.76345 13.4707 8.6608 14.6512 8.66664 15.8337C8.65916 17.025 8.76182 18.2145 8.97331 19.387C9.06061 19.6936 9.22551 19.9724 9.45207 20.1966C9.67863 20.4209 9.95919 20.5829 10.2666 20.667C11.4133 20.9737 16 20.9737 16 20.9737C16 20.9737 20.5866 20.9737 21.7333 20.667C22.0471 20.5782 22.332 20.4082 22.5591 20.1741C22.7862 19.9399 22.9474 19.6501 23.0266 19.3337C23.2349 18.1787 23.3375 17.0072 23.3333 15.8337C23.3408 14.6423 23.2381 13.4528 23.0266 12.2803V12.2803Z" stroke="#1971F5" stroke-width="1.5" stroke-linecap="round" stroke-linejoin="round"/>
<path d="M14.5 18.0133L18.3333 15.8333L14.5 13.6533V18.0133Z" stroke="#1971F5" stroke-width="1.5" stroke-linecap="round" stroke-linejoin="round"/>
</g>
<defs>
<clipPath id="clip0_359_114">
<rect width="16" height="16" fill="white" transform="translate(8 8)"/>
</clipPath>
</defs>
</svg>
