<svg width="16" height="56" viewBox="0 0 16 56" fill="none" xmlns="http://www.w3.org/2000/svg">
<path d="M8 7C3.58172 7 0 10.5817 0 15C0 19.4183 3.58172 23 8 23C12.4183 23 16 19.4183 16 15C15.9949 10.5839 12.4161 7.00514 8 7Z" fill="#1971F5" fill-opacity="0.4"/>
<path d="M12.6178 12.4665L8.0545 18.6592C7.94567 18.8036 7.78339 18.8982 7.60412 18.9217C7.42485 18.9453 7.24363 18.8959 7.10117 18.7845L3.8425 16.1792C3.55495 15.9491 3.50839 15.5294 3.7385 15.2418C3.96862 14.9543 4.38828 14.9077 4.67584 15.1378L7.39317 17.3118L11.5445 11.6778C11.6806 11.4736 11.918 11.3606 12.1624 11.3839C12.4068 11.4071 12.6186 11.5627 12.7138 11.789C12.809 12.0153 12.7721 12.2756 12.6178 12.4665Z" fill="white"/>
</svg>
