<svg width="16" height="48" viewBox="0 0 16 48" fill="none" xmlns="http://www.w3.org/2000/svg">
<path d="M8 16C3.58172 16 0 19.5817 0 24C0 28.4183 3.58172 32 8 32C12.4183 32 16 28.4183 16 24C15.9949 19.5839 12.4161 16.0051 8 16Z" fill="#1971F5" fill-opacity="0.4"/>
<path d="M12.6178 21.4665L8.0545 27.6592C7.94567 27.8036 7.78339 27.8982 7.60412 27.9217C7.42485 27.9453 7.24363 27.8959 7.10117 27.7845L3.8425 25.1792C3.55495 24.9491 3.50839 24.5294 3.7385 24.2418C3.96862 23.9543 4.38828 23.9077 4.67584 24.1378L7.39317 26.3118L11.5445 20.6778C11.6806 20.4736 11.918 20.3606 12.1624 20.3839C12.4068 20.4071 12.6186 20.5627 12.7138 20.789C12.809 21.0153 12.7721 21.2756 12.6178 21.4665Z" fill="white"/>
</svg>
