<svg width="32" height="32" viewBox="0 0 32 32" fill="none" xmlns="http://www.w3.org/2000/svg">
<rect width="32" height="32" rx="16" fill="#1971F5" fill-opacity="0.1"/>
<g clip-path="url(#clip0_359_118)">
<path d="M23.3334 9.99987C22.695 10.4502 21.9882 10.7946 21.2401 11.0199C20.8386 10.5582 20.305 10.231 19.7114 10.0825C19.1179 9.93397 18.4931 9.97133 17.9215 10.1895C17.3499 10.4077 16.859 10.7961 16.5154 11.3023C16.1718 11.8086 15.9919 12.4081 16.0001 13.0199V13.6865C14.8285 13.7169 13.6676 13.4571 12.6208 12.9302C11.5739 12.4033 10.6736 11.6256 10.0001 10.6665C10.0001 10.6665 7.33341 16.6665 13.3334 19.3332C11.9604 20.2652 10.3249 20.7325 8.66675 20.6665C14.6667 23.9999 22.0001 20.6665 22.0001 12.9999C21.9995 12.8142 21.9816 12.6289 21.9467 12.4465C22.6271 11.7755 23.1073 10.9283 23.3334 9.99987V9.99987Z" stroke="#1971F5" stroke-width="1.5" stroke-linecap="round" stroke-linejoin="round"/>
</g>
<defs>
<clipPath id="clip0_359_118">
<rect width="16" height="16" fill="white" transform="translate(8 8)"/>
</clipPath>
</defs>
</svg>
