<svg width="16" height="28" viewBox="0 0 16 28" fill="none" xmlns="http://www.w3.org/2000/svg">
<path d="M8 6C3.58172 6 0 9.58172 0 14C0 18.4183 3.58172 22 8 22C12.4183 22 16 18.4183 16 14C15.9949 9.58385 12.4161 6.00514 8 6Z" fill="#1971F5" fill-opacity="0.4"/>
<path d="M12.6178 11.4665L8.0545 17.6592C7.94567 17.8036 7.78339 17.8982 7.60412 17.9217C7.42485 17.9453 7.24363 17.8959 7.10117 17.7845L3.8425 15.1792C3.55495 14.9491 3.50839 14.5294 3.7385 14.2418C3.96862 13.9543 4.38828 13.9077 4.67584 14.1378L7.39317 16.3118L11.5445 10.6778C11.6806 10.4736 11.918 10.3606 12.1624 10.3839C12.4068 10.4071 12.6186 10.5627 12.7138 10.789C12.809 11.0153 12.7721 11.2756 12.6178 11.4665Z" fill="white"/>
</svg>
