<svg width="24" height="24" viewBox="0 0 24 24" fill="none" xmlns="http://www.w3.org/2000/svg">
<rect width="24" height="24" rx="12" fill="#1971F5" fill-opacity="0.1"/>
<g clip-path="url(#clip0_359_176)">
<path d="M16.9997 14.672V16.172C17.0003 16.3112 16.9718 16.449 16.916 16.5766C16.8602 16.7042 16.7784 16.8188 16.6758 16.9129C16.5732 17.007 16.452 17.0787 16.3201 17.1233C16.1882 17.1679 16.0484 17.1845 15.9097 17.172C14.3711 17.0048 12.8932 16.479 11.5947 15.637C10.3866 14.8693 9.36239 13.845 8.59472 12.637C7.74971 11.3326 7.22384 9.84746 7.05972 8.30196C7.04723 8.1637 7.06366 8.02434 7.10797 7.89277C7.15229 7.76121 7.22351 7.64031 7.31711 7.53777C7.4107 7.43524 7.52462 7.35332 7.65162 7.29722C7.77861 7.24113 7.91589 7.21209 8.05472 7.21196H9.55472C9.79738 7.20957 10.0326 7.2955 10.2166 7.45373C10.4006 7.61196 10.5208 7.83169 10.5547 8.07196C10.618 8.552 10.7354 9.02333 10.9047 9.47696C10.972 9.65592 10.9866 9.85042 10.9467 10.0374C10.9068 10.2244 10.8142 10.396 10.6797 10.532L10.0447 11.167C10.7565 12.4187 11.7929 13.4552 13.0447 14.167L13.6797 13.532C13.8157 13.3975 13.9873 13.3049 14.1743 13.265C14.3613 13.2251 14.5558 13.2397 14.7347 13.307C15.1884 13.4762 15.6597 13.5937 16.1397 13.657C16.3826 13.6912 16.6044 13.8136 16.763 14.0007C16.9216 14.1879 17.0058 14.4268 16.9997 14.672Z" stroke="#1971F5" stroke-linecap="round" stroke-linejoin="round"/>
</g>
<defs>
<clipPath id="clip0_359_176">
<rect width="12" height="12" fill="white" transform="translate(6 6.21191)"/>
</clipPath>
</defs>
</svg>
