<svg width="16" height="24" viewBox="0 0 16 24" fill="none" xmlns="http://www.w3.org/2000/svg">
<path d="M8 4C3.58172 4 0 7.58172 0 12C0 16.4183 3.58172 20 8 20C12.4183 20 16 16.4183 16 12C15.9949 7.58385 12.4161 4.00514 8 4Z" fill="#1971F5" fill-opacity="0.4"/>
<path d="M12.6178 9.4665L8.0545 15.6592C7.94567 15.8036 7.78339 15.8982 7.60412 15.9217C7.42485 15.9453 7.24363 15.8959 7.10117 15.7845L3.8425 13.1792C3.55495 12.9491 3.50839 12.5294 3.7385 12.2418C3.96862 11.9543 4.38828 11.9077 4.67584 12.1378L7.39317 14.3118L11.5445 8.67784C11.6806 8.47356 11.918 8.36063 12.1624 8.38386C12.4068 8.4071 12.6186 8.56275 12.7138 8.78902C12.809 9.01529 12.7721 9.27556 12.6178 9.4665Z" fill="white"/>
</svg>
