<svg width="32" height="32" viewBox="0 0 32 32" fill="none" xmlns="http://www.w3.org/2000/svg">
<rect width="32" height="32" rx="16" fill="#1971F5" fill-opacity="0.1"/>
<path d="M19.3333 9.33301H12.6666C10.8256 9.33301 9.33325 10.8254 9.33325 12.6663V19.333C9.33325 21.174 10.8256 22.6663 12.6666 22.6663H19.3333C21.1742 22.6663 22.6666 21.174 22.6666 19.333V12.6663C22.6666 10.8254 21.1742 9.33301 19.3333 9.33301Z" stroke="#1971F5" stroke-width="1.5" stroke-linecap="round" stroke-linejoin="round"/>
<path d="M18.6666 15.5802C18.7488 16.135 18.6541 16.7017 18.3957 17.1995C18.1374 17.6974 17.7287 18.1011 17.2276 18.3533C16.7266 18.6055 16.1589 18.6933 15.6051 18.6042C15.0513 18.515 14.5397 18.2536 14.1431 17.857C13.7465 17.4604 13.485 16.9488 13.3959 16.395C13.3068 15.8412 13.3946 15.2735 13.6468 14.7724C13.8989 14.2714 14.3027 13.8627 14.8005 13.6044C15.2984 13.346 15.8651 13.2513 16.4199 13.3335C16.9858 13.4175 17.5098 13.6812 17.9143 14.0857C18.3189 14.4903 18.5826 15.0143 18.6666 15.5802Z" stroke="#1971F5" stroke-width="1.5" stroke-linecap="round" stroke-linejoin="round"/>
<path d="M19.6667 12.333H19.6734" stroke="#1971F5" stroke-width="1.5" stroke-linecap="round" stroke-linejoin="round"/>
</svg>
