<svg width="128" height="134" viewBox="0 0 128 134" fill="none" xmlns="http://www.w3.org/2000/svg">
<path d="M7.97876 8.32959H119.683V124.947H7.97876V8.32959Z" fill="#F5DE19"/>
<path d="M83.016 99.4372C83.9678 101.455 85.4464 103.152 87.2816 104.331C89.1168 105.51 91.2338 106.124 93.3885 106.101C97.737 106.101 100.518 103.831 100.518 100.687C100.518 96.9382 97.6612 95.5971 92.8739 93.4105L90.2488 92.236C82.6689 88.8666 77.6422 84.6476 77.6422 75.7263C77.6422 67.509 83.6264 61.2491 93.0135 61.2491C96.0523 61.02 99.0884 61.73 101.743 63.2906C104.398 64.8512 106.554 67.1932 107.942 70.0246L99.7357 75.5014C99.2012 74.0975 98.2705 72.8964 97.0671 72.0574C95.8637 71.2183 94.4445 70.781 92.9976 70.8034C92.3663 70.7374 91.7287 70.8095 91.1256 71.0149C90.5225 71.2204 89.9669 71.5548 89.4944 71.9967C89.0219 72.4387 88.6427 72.9786 88.3811 73.582C88.1195 74.1854 87.9811 74.8391 87.9749 75.5014C87.9749 78.7875 89.9257 80.1203 94.4298 82.1653L97.0548 83.3398C105.975 87.3339 111.018 91.4031 111.018 100.553C111.018 110.42 103.593 115.826 93.6239 115.826C89.7394 116.084 85.8663 115.164 82.4719 113.175C79.0775 111.186 76.307 108.214 74.4946 104.618L83.016 99.4372ZM45.9343 100.387C47.5819 103.44 49.0819 106.022 52.6884 106.022C56.1352 106.022 58.3135 104.614 58.3135 99.1373V61.8738H68.8096V99.2831C68.8096 110.628 62.4266 115.793 53.1352 115.793C49.8509 115.98 46.5891 115.126 43.7787 113.342C40.9683 111.558 38.7408 108.927 37.3889 105.797L45.9343 100.387Z" fill="black"/>
</svg>
