<svg width="99" height="140" viewBox="0 0 99 140" fill="none" xmlns="http://www.w3.org/2000/svg">
<g clip-path="url(#clip0_300_1040)">
<path d="M49.4397 139.253L9.15057 128.068L0.172119 27.3667H98.8279L89.8402 128.053L49.4397 139.253Z" fill="#264DE4"/>
<path d="M82.1456 121.641L89.8259 35.6001H49.5V130.692L82.1456 121.641Z" fill="#2965F1"/>
<path d="M20.7549 72.9491L21.8617 85.2997H49.5001V72.9491H20.7549ZM18.5305 47.9512L19.6532 60.3018H49.5001V47.9512H18.5305ZM49.5001 105.025L49.446 105.039L35.6912 101.325L34.8118 91.4752H22.4136L24.1437 110.868L49.4433 117.89L49.5001 117.875V105.025Z" fill="#EBEBEB"/>
<path d="M23.3904 0H38.3487V6.25557H29.6459V12.5111H38.3494V18.7663H23.3904V0ZM41.3407 0H56.2994V5.43959H47.5963V6.52743H56.2994V19.0386H41.3411V13.3263H50.0442V12.2385H41.3403V0H41.3407ZM59.2914 0H74.2501V5.43959H65.547V6.52743H74.2501V19.0386H59.2914V13.3263H67.9945V12.2385H59.2918V0H59.2914Z" fill="black"/>
<path d="M78.1662 72.9491L80.3957 47.9512H49.4574V60.3018H66.8605L65.7367 72.9491H49.4574V85.2997H64.6659L63.2319 101.318L49.457 105.036V117.885L74.7767 110.868L74.9623 108.781L77.865 76.2656L78.1662 72.9491Z" fill="white"/>
</g>
<defs>
<clipPath id="clip0_300_1040">
<rect width="99" height="139.605" fill="white"/>
</clipPath>
</defs>
</svg>
