<svg width="183" height="77" viewBox="0 0 183 77" fill="none" xmlns="http://www.w3.org/2000/svg">
<path d="M109.072 26.5323C105.081 26.5323 102.11 28.4916 102.11 33.2071C102.11 36.7598 104.068 39.2266 108.857 39.2266C112.915 39.2266 115.672 36.8346 115.672 33.0595C115.672 28.7817 113.206 26.5323 109.072 26.5323ZM101.094 59.8284C100.149 60.987 99.208 62.219 99.208 63.6713C99.208 66.5709 102.905 67.4436 107.985 67.4436C112.191 67.4436 117.922 67.1484 117.922 63.2371C117.922 60.9121 115.165 60.7688 111.681 60.5506L101.094 59.8284ZM122.563 26.7512C123.867 28.4195 125.247 30.7417 125.247 34.0776C125.247 42.1284 118.936 46.8425 109.799 46.8425C107.476 46.8425 105.372 46.553 104.068 46.1909L101.673 50.0337L108.781 50.4686C121.331 51.2686 128.726 51.6322 128.726 61.275C128.726 69.6181 121.403 74.3301 108.781 74.3301C95.6532 74.3301 90.6482 70.9934 90.6482 65.264C90.6482 62.0001 92.0991 60.2626 94.6379 57.8649C92.2438 56.8532 91.4467 55.0409 91.4467 53.0809C91.4467 51.4839 92.2438 50.0344 93.5514 48.6549C94.8561 47.2788 96.3063 45.8993 98.0473 44.3036C94.4939 42.5626 91.8089 38.791 91.8089 33.4224C91.8089 25.0829 97.3222 19.3549 108.417 19.3549C111.537 19.3549 113.424 19.6416 115.092 20.08H129.237V26.2429L122.563 26.7512ZM141.998 13.5707C137.863 13.5707 135.469 11.1751 135.469 7.03922C135.469 2.90903 137.862 0.658203 141.998 0.658203C146.204 0.658203 148.599 2.90903 148.599 7.03922C148.599 11.1751 146.205 13.5707 141.998 13.5707ZM132.64 57.1591V51.4319L136.34 50.9256C137.356 50.7795 137.5 50.5627 137.5 49.4726V28.1479C137.5 27.3522 137.283 26.8418 136.555 26.6264L132.64 25.2469L133.437 19.3735H148.452V49.4726C148.452 50.6348 148.522 50.7795 149.614 50.9264L153.313 51.4326V57.1591H132.64ZM181.996 54.3472C178.876 55.8693 174.307 57.2475 170.171 57.2475C161.54 57.2475 158.277 53.7697 158.277 45.5692V26.568C158.277 26.1331 158.277 25.8429 157.695 25.8429H152.618V19.3856C159.003 18.6584 161.54 15.4672 162.337 7.56111H169.229V17.8634C169.229 18.3696 169.229 18.5885 169.81 18.5885H180.036V25.8415H169.229V43.1757C169.229 47.4549 170.245 49.1219 174.16 49.1219C176.194 49.1219 178.295 48.6157 180.035 47.9626L181.996 54.3464" fill="#2F2707"/>
<path d="M74.5253 35.3129L41.3611 2.15083C40.9069 1.6965 40.3677 1.3361 39.7742 1.09022C39.1807 0.844331 38.5445 0.717773 37.9021 0.717773C37.2597 0.717773 36.6236 0.844331 36.0301 1.09022C35.4366 1.3361 34.8974 1.6965 34.4432 2.15083L27.5567 9.03805L36.2926 17.7733C37.3195 17.424 38.4236 17.3694 39.48 17.6155C40.5363 17.8616 41.5026 18.3986 42.2694 19.1657C43.0403 19.9376 43.5785 20.9108 43.8226 21.9741C44.0667 23.0374 44.0068 24.148 43.6497 25.1788L52.0676 33.5982C54.1046 32.8966 56.4552 33.3508 58.0815 34.9799C58.6222 35.5203 59.0511 36.1618 59.3437 36.868C59.6363 37.5742 59.787 38.3311 59.787 39.0955C59.787 39.8599 59.6363 40.6168 59.3437 41.323C59.0511 42.0291 58.6222 42.6707 58.0815 43.2111C57.1302 44.1632 55.8784 44.7563 54.5391 44.8893C53.1997 45.0224 51.8557 44.6871 50.7357 43.9407C49.6157 43.1943 48.7891 42.0828 48.3964 40.7954C48.0037 39.5081 48.0693 38.1244 48.582 36.88L40.7308 29.0288L40.7301 49.6905C41.2993 49.9719 41.8191 50.3437 42.2694 50.7913C42.81 51.3318 43.2389 51.9735 43.5315 52.6798C43.8241 53.3861 43.9747 54.1431 43.9747 54.9076C43.9747 55.6721 43.8241 56.4291 43.5315 57.1354C43.2389 57.8416 42.81 58.4834 42.2694 59.0239C39.995 61.2982 36.309 61.2982 34.0382 59.0239C33.3598 58.346 32.8595 57.5109 32.5816 56.593C32.3037 55.6751 32.2569 54.7028 32.4455 53.7624C32.634 52.8221 33.0519 51.9429 33.6622 51.203C34.2724 50.4631 35.056 49.8855 35.9433 49.5215V28.6673C35.2295 28.3759 34.5816 27.9438 34.0382 27.3968C32.3157 25.6765 31.9015 23.149 32.7841 21.0336L24.173 12.4211L1.43372 35.1589C0.979334 35.6132 0.61889 36.1527 0.372975 36.7463C0.12706 37.34 0.000488281 37.9763 0.000488281 38.6189C0.000488281 39.2615 0.12706 39.8978 0.372975 40.4914C0.61889 41.0851 0.979334 41.6245 1.43372 42.0789L34.5979 75.2416C35.5154 76.1588 36.7596 76.6741 38.0569 76.6741C39.3542 76.6741 40.5983 76.1588 41.5158 75.2416L74.5253 42.2336C75.4426 41.3157 75.958 40.071 75.958 38.7732C75.958 37.4755 75.4426 36.2308 74.5253 35.3129Z" fill="#DE4C36"/>
</svg>
