<svg width="95" height="134" viewBox="0 0 95 134" fill="none" xmlns="http://www.w3.org/2000/svg">
<path d="M94.8347 26.2676L86.2102 122.911L47.442 133.661L8.78072 122.926L0.165039 26.2676H94.8347Z" fill="#E44D26"/>
<path d="M47.5 125.444L78.8266 116.757L86.1965 34.1709H47.5V125.444Z" fill="#F16529"/>
<path d="M30.734 57.8806H47.5V46.0259H17.7817L18.0653 49.2062L20.9783 81.8748H47.5V70.0201H31.8172L30.734 57.8806ZM33.4052 87.8024H21.5079L23.1682 106.416L47.4455 113.157L47.5 113.142V100.808L47.4481 100.822L34.249 97.257L33.4052 87.8024Z" fill="#EBEBEB"/>
<path d="M8.97314 0H14.996V5.95204H20.5056V0H26.5289V18.0243H20.506V11.9887H14.9964V18.0243H8.97352V0H8.97314ZM34.4487 5.97729H29.1473V0H45.7775V5.97729H40.4727V18.0243H34.4499V5.97729H34.4495H34.4487ZM48.4167 0H54.6967L58.5598 6.33326L62.4192 0H68.7018V18.0243H62.7034V9.09046L58.5598 15.4991H58.4559L54.3097 9.09046V18.0243H48.4167V0ZM71.6991 0H77.7238V12.0667H86.1937V18.0243H71.6988V0H71.6991Z" fill="black"/>
<path d="M47.4591 81.8748H62.0531L60.6771 97.2496L47.4587 100.818V113.151L71.7554 106.416L71.9335 104.413L74.7189 73.2034L75.008 70.0201H47.4591V81.8748ZM47.4591 57.8517V57.8806H76.0864L76.3239 55.2162L76.8642 49.2062L77.1474 46.0259H47.4591V57.852V57.8517Z" fill="white"/>
</svg>
