<svg width="85" height="126" viewBox="0 0 85 126" fill="none" xmlns="http://www.w3.org/2000/svg">
<g clip-path="url(#clip0_300_1020)">
<path d="M21.25 126C32.98 126 42.5 116.592 42.5 105V84H21.25C9.52 84 0 93.408 0 105C0 116.592 9.52 126 21.25 126Z" fill="#0ACF83"/>
<path d="M0 63C0 51.408 9.52 42 21.25 42H42.5V84H21.25C9.52 84 0 74.592 0 63Z" fill="#A259FF"/>
<path d="M0 21C0 9.408 9.52 0 21.25 0H42.5V42H21.25C9.52 42 0 32.592 0 21Z" fill="#F24E1E"/>
<path d="M42.5 0H63.75C75.48 0 85 9.408 85 21C85 32.592 75.48 42 63.75 42H42.5V0Z" fill="#FF7262"/>
<path d="M85 63C85 74.592 75.48 84 63.75 84C52.02 84 42.5 74.592 42.5 63C42.5 51.408 52.02 42 63.75 42C75.48 42 85 51.408 85 63Z" fill="#1ABCFE"/>
</g>
<defs>
<clipPath id="clip0_300_1020">
<rect width="85" height="126" fill="white"/>
</clipPath>
</defs>
</svg>
